<?xml version="1.0" encoding="utf-8"?>
<!-- Generator: Adobe Illustrator 26.3.1, SVG Export Plug-In . SVG Version: 6.00 Build 0)  -->
<svg version="1.1" id="Layer_1" xmlns="http://www.w3.org/2000/svg" xmlns:xlink="http://www.w3.org/1999/xlink" x="0px" y="0px"
	 viewBox="0 0 111.3 45.3" style="enable-background:new 0 0 111.3 45.3;" xml:space="preserve">
<style type="text/css">
	.st0{display:none;}
	.st1{fill:none;}
	.st2{display:none;stroke:#000000;stroke-miterlimit:10;}
	.st3{fill:none;stroke:#FFFFFF;stroke-width:2;}
	.st4{fill:none;stroke:#FFFFFF;}
	.st5{fill:none;stroke:#FFFFFF;stroke-linecap:round;stroke-linejoin:round;}
	.st6{fill:none;stroke:#FFFFFF;stroke-linecap:round;}
	.st7{fill:none;stroke:#FFFFFF;stroke-width:1.5;stroke-linecap:round;stroke-linejoin:round;}
	.st8{fill:#FFFFFF;}
</style>
<rect x="-0.1" y="-9.8" class="st0" width="258.4" height="63.8"/>
<path class="st1" d="M146.5-16.9"/>
<rect y="-9.9" class="st2" width="261" height="65"/>
<g>
	<g>
		<circle class="st3" cx="24.5" cy="22.8" r="16.4"/>
		<path class="st4" d="M19.2,38.5L40.8,26"/>
		<path class="st4" d="M8.4,19.8L30,7.4"/>
		<path class="st5" d="M14.5,36l19.6-11.3"/>
		<path class="st6" d="M15.1,21.2L34.7,9.9"/>
		<path class="st5" d="M19.7,19.1l10.5,7.8"/>
		<path class="st5" d="M23.6,16.8l10.5,7.8"/>
		<path class="st5" d="M15.1,21.2l11.1,8"/>
	</g>
	<path class="st7" d="M56.4,15.9v13.7 M49.5,22.7h13.7"/>
</g>
<g>
	<path class="st8" d="M86.9,12.3l1.8,3.2L87.9,16l-1.8-3.2L86.9,12.3z M79.7,15.5l1.8-3.2l0.8,0.5L80.5,16L79.7,15.5z M90.1,17.9
		l1.8,3.2l-0.8,0.5l-1.8-3.2L90.1,17.9z M76.5,21.1l1.8-3.2l0.8,0.5l-1.8,3.2L76.5,21.1z M73.3,26.8l1.8-3.2l0.8,0.5l-1.8,3.2
		L73.3,26.8z M93.3,23.6l1.8,3.2l-0.8,0.5l-1.8-3.2L93.3,23.6z M70.1,32.4l1.8-3.2l0.8,0.5l-1.8,3.2L70.1,32.4z M96.5,29.2l1.8,3.2
		l-0.8,0.5l-1.8-3.2L96.5,29.2z M76.4,37.2h-3.7v-0.9h3.7V37.2z M82.8,37.2h-3.7v-0.9h3.7V37.2z M89.2,37.2h-3.7v-0.9h3.7V37.2z
		 M95.6,37.2h-3.7v-0.9h3.7V37.2z"/>
	<path class="st8" d="M84.2,5.6c-1.6,0-2.8,1.3-2.8,2.8c0,1.6,1.3,2.8,2.8,2.8c1.6,0,2.8-1.3,2.8-2.8S85.7,5.6,84.2,5.6z M80.4,8.5
		c0-2.1,1.7-3.8,3.8-3.8S88,6.4,88,8.5s-1.7,3.8-3.8,3.8S80.4,10.5,80.4,8.5z"/>
	<path class="st8" d="M101.1,33.9c-1.6,0-2.8,1.3-2.8,2.8s1.3,2.8,2.8,2.8c1.6,0,2.8-1.3,2.8-2.8S102.7,33.9,101.1,33.9z M97.4,36.7
		c0-2.1,1.7-3.8,3.8-3.8s3.8,1.7,3.8,3.8s-1.7,3.8-3.8,3.8C99,40.5,97.4,38.8,97.4,36.7z"/>
	<path class="st8" d="M68.2,33.9c-1.6,0-2.8,1.3-2.8,2.8s1.3,2.8,2.8,2.8c1.6,0,2.8-1.3,2.8-2.8S69.7,33.9,68.2,33.9z M64.4,36.7
		c0-2.1,1.7-3.8,3.8-3.8s3.8,1.7,3.8,3.8s-1.7,3.8-3.8,3.8C66.1,40.5,64.4,38.8,64.4,36.7z"/>
</g>
</svg>
